<?xml version="1.0" standalone="yes"?>
<svg xmlns="http://www.w3.org/2000/svg" width="67" height="67">
<path style="fill:#010101; stroke:none;" d="M0 0L0 67L32 67C28.1853 65.3539 23.8765 65.2565 20 63.4815C12.0431 59.8382 5.44018 52.2009 2.54784 44C-6.14204 19.361 18.5711 -4.87064 43 2.43981C77.1302 12.6534 70.8362 65.2366 35 66C38.6987 67.552 43.0172 67 47 67L67 67L67 0L0 0z"/>
<path style="fill:#670167; stroke:none;" d="M27 1.46451C3.9758 5.61572 -6.93906 34.0635 6.63735 53C14.5985 64.1042 27.9079 68.1918 41 65.689C62.0532 61.6644 72.4676 36.4977 62.6728 18C55.8018 5.02392 41.2535 -1.10537 27 1.46451z"/>
<path style="fill:#b91fb9; stroke:none;" d="M3 34L14 34C14.3537 18.9547 27.6817 12.3958 41 15.054C43.7304 15.599 46.605 15.4456 48.848 17.3565C52.5227 20.4871 53.3051 29.3571 54 34L64 34C63.9872 29.3651 63.656 25.2728 61.6759 21C50.6878 -2.71127 16.4324 -2.60374 5.32716 21C3.32466 25.2562 3.01276 29.3756 3 34z"/>
<path style="fill:#8f138f; stroke:none;" d="M38.6667 3.33333C38.2222 3.77778 39.2778 3.72223 39.3333 3.66667C39.7778 3.22221 38.7222 3.27779 38.6667 3.33333z"/>
<path style="fill:#870d87; stroke:none;" d="M27.6667 14.3333C27.2222 14.7778 28.2778 14.7222 28.3333 14.6667C28.7778 14.2222 27.7222 14.2778 27.6667 14.3333z"/>
<path style="fill:#670167; stroke:none;" d="M52 25C46.8668 28.2187 48.5072 30.8287 47.1605 36C45.9319 40.7178 42.3862 44.5772 37.9961 46.5818C30.0361 50.2164 20.161 42.2804 19.5679 34C19.1793 28.5743 24.2249 22.7932 29.0008 20.858C32.5472 19.421 36.3952 20.3308 40 21L42 15C37.2764 14.403 32.7317 13.5347 28 14.6844C2.61123 20.8537 15.1391 61.34 40 52.4514C42.8529 51.4314 45.6322 49.9493 47.7863 47.787C50.3909 45.1725 52.0362 41.6137 52.6713 38C53.4289 33.6887 53.0037 29.2159 52 25z"/>
<path style="fill:#9b139b; stroke:none;" d="M38.6667 14.3333C38.2222 14.7778 39.2778 14.7222 39.3333 14.6667C39.7778 14.2222 38.7222 14.2778 38.6667 14.3333z"/>
<path style="fill:#dd93dd; stroke:none;" d="M44 15C45.506 15.683 46.3148 15.8259 48 16C46.494 15.317 45.6852 15.1741 44 15z"/>
<path style="fill:#bf95bf; stroke:none;" d="M42 16L43 17L42 16z"/>
<path style="fill:#ffffff; stroke:none;" d="M43.1481 17.0324C36.9692 20.5708 43.01 29.6148 48.6821 25.9676C54.0045 22.5453 49.037 13.6601 43.1481 17.0324z"/>
<path style="fill:#d7bbd7; stroke:none;" d="M41 17L42 18L41 17z"/>
<path style="fill:#af79af; stroke:none;" d="M40 18L41 19L40 18z"/>
<path style="fill:#ebbfeb; stroke:none;" d="M51 19L51 24C51.8299 21.9695 51.8299 21.0305 51 19z"/>
<path style="fill:#1b1b1b; stroke:none;" d="M47 28L43 27C43.6715 29.566 44.8374 32.3141 44.2431 35C43.8384 36.8288 42.7895 38.5209 41.6057 39.9452C40.3426 41.465 38.8025 42.8299 36.9961 43.6667C24.5108 49.4499 16.6478 25.6759 32 23.2431C34.6614 22.8213 37.3968 23.517 40 24C36.269 17.9177 27.8198 19.3383 23.3441 24.189C20.1401 27.6615 19.4149 32.4602 20.3441 37C22.4021 47.0546 36.3224 50.6112 43.4668 43.4668C47.6617 39.272 47 33.4428 47 28z"/>
<path style="fill:#454545; stroke:none;" d="M39.3333 21.6667C39.2778 21.7222 39.2222 22.7778 39.6667 22.3333C39.7222 22.2778 39.7778 21.2222 39.3333 21.6667z"/>
<path style="fill:#010101; stroke:none;" d="M29.0154 23.7423C16.982 28.4833 24.6729 48.7055 36.9961 44.1026C51.1235 38.8259 42.8073 18.3085 29.0154 23.7423z"/>
<path style="fill:#858585; stroke:none;" d="M40 24L41 25L40 24z"/>
<path style="fill:#bfbfbf; stroke:none;" d="M41 25L42 26L41 25z"/>
<path style="fill:#934993; stroke:none;" d="M50 25L51 26L50 25z"/>
<path style="fill:#9b9b9b; stroke:none;" d="M42 26L43 27L42 26z"/>
<path style="fill:#8b3f8b; stroke:none;" d="M49 26L50 27L49 26z"/>
<path style="fill:#939193; stroke:none;" d="M44 27C45.2484 27.6848 45.5484 27.7488 47 28C45.7516 27.3152 45.4516 27.2512 44 27z"/>
<path style="fill:#8f458f; stroke:none;" d="M47 27L48 28L47 27z"/>
<path style="fill:#991399; stroke:none;" d="M53 30L53 33C53.6961 31.4463 53.6961 31.5537 53 30z"/>
<path style="fill:#7b0b7b; stroke:none;" d="M64 30L64 34C64.7102 32.2405 64.7102 31.7595 64 30z"/>
<path style="fill:#4b094b; stroke:none;" d="M19 31L19 36C19.8299 33.9695 19.8299 33.0305 19 31z"/>
<path style="fill:#410d41; stroke:none;" d="M47 31L47 36C47.8299 33.9695 47.8299 33.0305 47 31z"/>
<path style="fill:#871b87; stroke:none;" d="M53 33C52.838 36.5374 52.3108 39.838 50.5826 42.9992C40.6044 61.2507 15.6753 53.068 14 34L3 34C3.26546 63.6919 43.7456 75.6222 59.5316 50C62.5658 45.0752 63.7539 39.7167 64 34C60.2143 33.9975 56.694 33.8795 53 33z"/>
<path style="fill:#391139; stroke:none;" d="M30 47C32.3316 47.9845 34.4567 47.9813 37 48C34.6684 47.0155 32.5433 47.0187 30 47z"/>
</svg>
